<?xml version="1.0" encoding="UTF-8"?>
<svg width="365px" height="332px" viewBox="0 0 365 332" version="1.1" xmlns="http://www.w3.org/2000/svg" xmlns:xlink="http://www.w3.org/1999/xlink">
    <!-- Generator: Sketch 44.1 (41455) - http://www.bohemiancoding.com/sketch -->
    <title>gem</title>
    <desc>Created with Sketch.</desc>
    <defs></defs>
    <g id="Sketch-Animation" stroke="none" stroke-width="1" fill="none" fill-rule="evenodd">
        <g id="gem" transform="translate(3.000000, 2.000000)" stroke="#FFFFFF" stroke-width="4">
            <path d="M52.6032646,29.4086103 L113,55.5 L245.003788,55.5 L305.908845,28.9128606 L305.908845,28.9128606 C306.415004,28.6919049 306.646207,28.1024618 306.425251,27.5963028 C306.324777,27.3661391 306.141379,27.1822066 305.911508,27.0810635 L245.5,0.5 L114,0.5 L52.5963784,27.5756127 L52.5963784,27.5756127 C52.0910401,27.798439 51.8620189,28.3887332 52.0848452,28.8940715 C52.1865912,29.124817 52.3717612,29.3086008 52.6032646,29.4086103 Z" id="Path"></path>
            <polygon id="Path-2" points="50.5 29 0 85 66 144 113 55"></polygon>
            <polygon id="Path-2-Copy" transform="translate(302.500000, 86.500000) scale(-1, 1) translate(-302.500000, -86.500000) " points="296.5 29 246 85 313 144 359 55.5"></polygon>
            <polygon id="Path-3" points="66 144 292 144 248 56.5 113 55"></polygon>
            <path d="M0.553990846,85.7500663 L178,326 L66,143 L0.700440725,85.6155388 L0.700440725,85.6155388 C0.658955033,85.5790817 0.595769898,85.5831582 0.559312775,85.6246438 C0.528249573,85.6599916 0.526033666,85.7122141 0.553990846,85.7500663 Z" id="Path-4"></path>
            <path d="M178.584863,85.7787408 L359,326 L245,144 L178.730912,85.6436386 L178.730912,85.6436386 C178.689463,85.6071392 178.626274,85.6111512 178.589774,85.6525997 C178.558451,85.6881699 178.556401,85.7408429 178.584863,85.7787408 Z" id="Path-4-Copy" transform="translate(268.500000, 205.500000) scale(-1, 1) translate(-268.500000, -205.500000) "></path>
            <path d="" id="Path-5"></path>
            <polygon id="Path-6" points="66 144 178 326 292 144"></polygon>
        </g>
    </g>
</svg>
