<?xml version="1.0" encoding="UTF-8"?>
<svg width="532px" height="416px" viewBox="0 0 532 416" version="1.1" xmlns="http://www.w3.org/2000/svg" xmlns:xlink="http://www.w3.org/1999/xlink">
    <!-- Generator: Sketch 44.1 (41455) - http://www.bohemiancoding.com/sketch -->
    <title>Group 2</title>
    <desc>Created with Sketch.</desc>
    <defs></defs>
    <g id="Self-Logo" stroke="none" stroke-width="1" fill="none" fill-rule="evenodd">
        <g id="Group" transform="translate(-681.000000, 0.000000)" fill="#FFFFFF">
            <g id="Group-2" transform="translate(681.000000, 0.000000)">
                <path d="M0,0 L532,0 L532,241.563852 C532,244.933149 530.30331,248.075933 527.486374,249.924456 L274.406321,416 L4.82320913,252.884482 C1.8292245,251.072924 -2.48828915e-14,247.828116 -1.59872116e-14,244.328733 L1.675021e-14,244.328733 L0,0 Z M79.2595937,62.3400576 L79.2595937,237.38838 L271.282075,353.659942 L451.539503,235.285004 L451.539503,62.3400576 L79.2595937,62.3400576 Z" id="Combined-Shape"></path>
                <polyline id="Path-3" points="127 91.5055555 127 118.010272 142.5 130.005555 208.007633 130.005555 208.007633 214.011417 127.5 163.505555 127.5 217.007892 255 292.505555 255 90"></polyline>
                <polygon id="Path-4" points="284 91 284 294.015394 334 263.5 334.5 237 370 217 369.5 239.5 404 219.5 404 137.486282 367.5 144 367.5 180.5 331 197.5 331 129.992593 404.027595 129.992593 404.027595 91.4877195"></polygon>
            </g>
        </g>
    </g>
</svg>